<?xml version="1.0" encoding="UTF-8"?>
<svg id="uuid-9913adc1-2354-440c-93c7-3d481a5d26f4" data-name="Capa_1" xmlns="http://www.w3.org/2000/svg" viewBox="0 0 497.2 264.17">
  <defs>
    <style>
      .uuid-b07ee232-35e6-43db-ae86-1b2d35d9acf5 {
        fill: #f8aa22;
      }
    </style>
  </defs>
  <path class="uuid-b07ee232-35e6-43db-ae86-1b2d35d9acf5" d="M307.33,98.76c-2.64-3.84-5.64-13.45-6.6-23.17-.96-9.72-1.68-13.92-9-19.68-7.32-5.76-16.44-5.16-26.41-1.8-9.96,3.36-10.44,12-8.76,17.28,1.68,5.28,11.89,4.44,13.09,0,.59-2.2,1.8-4.07,2.87-5.4,1.5-1.86,3.98-2.76,6.23-1.96,3.79,1.35,3.86,6.11,3.66,8.39-.08.91-.49,1.76-1.19,2.34-2.76,2.27-7.37,1.83-17.1,8.32-11.04,7.36-13.44,19.04-10.8,28.28s10.2,12.36,17.29,13.59c5.24.92,11.21-2.11,13.95-3.74.87-.51,1.94-.43,2.76.15,1.36.95,4.03,2.27,8.85,2.84,8.04.96,12.96-7.32,14.16-12.36,1.2-5.04-.36-9.24-3-13.08ZM286.7,96.97c-.96,3.24-4.2,7.56-8.76,4.08-4.11-3.13-.64-13.73,5.34-14.27,1.18-.1,2.26.68,2.58,1.83.61,2.19,1.5,6.11.84,8.36Z"/>
  <path class="uuid-b07ee232-35e6-43db-ae86-1b2d35d9acf5" d="M360.17,200c-12.91-4.3-20.14,18.83-28.36,17.14-8.21-1.68-14.18-10.39-12.23-14.6,1.38-2.97,4.67-6.13,5.39-9.86.42-2.16,2.66-3.41,4.79-2.87,2.91.74,6.01.99,9.21.67,12.05-1.21,19.42-10.51,20.99-22.51,1.14-8.68.5-16.92-5.05-22.46-1.6-1.59-2.03-4.05-.92-6.01.11-.18.21-.35.32-.52,1.08-1.64,5.38-1.38,7.43-1.19,2.05.2,7.04-3.72,4.99-8.8s-11.15-5.29-16.43-2.15c-2.89,1.71-4.47,5.18-5.3,7.98-.64,2.15-2.73,3.56-4.95,3.24-1.63-.24-3.31-.32-5.02-.24-13.79.62-23.76,12.24-24,26.04-.1,6.04.64,11.5,3.96,16,1.01,1.37.21,3.36-1.48,3.58-3.48.45-7.74,2.06-8.3,7.18-.98,8.8,2.44,11.36,2.8,12.03,2.32,4.41-14.93,15.15-.26,27.77,0,0,42.16,22.69,63.28-12.52,0,0,2.05-13.59-10.86-17.9ZM336.91,151.55c1.47-.48,3.08.27,3.83,1.72,1.43,2.79,3.75,7.83,3.59,11.05-.24,4.64-3.05,11.39-9.89,7.99-6.14-3.06-4.95-18.34,2.47-20.76Z"/>
  <path class="uuid-b07ee232-35e6-43db-ae86-1b2d35d9acf5" d="M198.32,98.83c-2.64-3.84-5.65-13.45-6.61-23.17-.96-9.72-1.68-13.92-9-19.68-7.32-5.76-16.44-5.16-26.4-1.8-9.96,3.36-10.45,12-8.76,17.28,1.68,5.28,11.88,4.44,13.08,0,.59-2.2,1.8-4.07,2.87-5.4,1.5-1.86,3.98-2.76,6.23-1.96,3.79,1.35,3.86,6.11,3.66,8.39-.08.91-.48,1.77-1.19,2.34-2.76,2.27-7.36,1.83-17.09,8.32-11.05,7.36-13.45,19.04-10.81,28.28,2.65,9.24,10.21,12.36,17.29,13.59,5.24.92,11.21-2.11,13.95-3.74.87-.51,1.94-.43,2.76.15,1.36.96,4.03,2.27,8.85,2.84,8.04.96,12.97-7.32,14.17-12.36,1.2-5.04-.36-9.24-3-13.08ZM177.68,96.97c-.96,3.24-4.2,7.56-8.76,4.08-4.1-3.13-.63-13.73,5.34-14.27,1.19-.1,2.27.68,2.58,1.83.61,2.19,1.51,6.11.84,8.36Z"/>
  <path class="uuid-b07ee232-35e6-43db-ae86-1b2d35d9acf5" d="M216.43,187.9c-2.82-4.1-6.02-14.35-7.05-24.73-1.02-10.39-1.79-14.87-9.61-21.02-7.82-6.16-17.56-5.52-28.2-1.93-10.64,3.59-11.15,12.82-9.36,18.46,1.8,5.64,12.69,4.74,13.98,0,.63-2.35,1.92-4.35,3.07-5.77,1.59-1.99,4.25-2.95,6.65-2.09,4.05,1.44,4.12,6.52,3.91,8.96-.09.97-.52,1.88-1.27,2.5-2.95,2.42-7.87,1.95-18.26,8.88-11.79,7.87-14.36,20.33-11.54,30.2,2.82,9.87,10.9,13.2,18.46,14.52,5.6.97,11.97-2.25,14.9-4,.93-.54,2.07-.46,2.95.16,1.45,1.02,4.3,2.42,9.45,3.04,8.59,1.02,13.84-7.82,15.13-13.21,1.28-5.38-.39-9.86-3.21-13.97ZM194.4,185.21c-1.03,3.46-4.49,8.08-9.36,4.36-4.38-3.34-.68-14.67,5.71-15.24,1.26-.11,2.41.73,2.75,1.95.65,2.34,1.61,6.53.9,8.93Z"/>
  <path class="uuid-b07ee232-35e6-43db-ae86-1b2d35d9acf5" d="M417.47,169.26c-3.35-2.87-7.41-10.03-7.89-10.89-.43-.6-4.94-6.66-11.09-6.66-.19,0-.38,0-.58.02-6.72.41-10.57,5.06-11.94,9.27-.52,1.62-1.78,3.19-3.25,5-3.01,3.73-6.76,8.38-5.93,15.7,1.25,11,14.19,18.52,25.73,20.02,5.63.73,11.56-1.23,16.28-5.38,3.9-3.42,6.32-7.88,6.32-11.62,0-7.89-4.09-12.4-7.65-15.46ZM412.39,172.03c-.11,2.94-3.92,3.89-5.05,4.11-.16.03-.32-.09-.32-.26-.04-4.36,5.49-7.22,5.37-3.85ZM408.36,163.94c.59,2.88-2.89,4.71-3.93,5.19-.15.06-.34-.02-.38-.18-1.06-4.23,3.63-8.32,4.31-5.01ZM400.74,159.39c1.91,2.24-.25,5.52-.93,6.44-.1.13-.3.15-.41.03-2.99-3.19-.85-9.04,1.34-6.47ZM396.1,170.88c2.88.56,3.23,4.48,3.27,5.63,0,.16-.14.3-.31.27-4.32-.64-6.27-6.55-2.96-5.9ZM396.93,179.44c-2.7,3.01-8.25,1.51-6.06-.71,1.9-1.94,5.1-.22,6,.34.13.08.17.26.06.37ZM392.03,162.4c2.89.56,3.24,4.48,3.27,5.62.01.17-.14.31-.3.28-4.32-.64-6.28-6.55-2.97-5.9ZM386.49,169.7c3.3-.97,5.76,2.91,6.42,4.08.09.17,0,.39-.17.45-4.83,1.65-10.03-3.42-6.25-4.53ZM381.71,177.68c1.9-1.94,5.1-.21,6,.35.13.08.17.26.06.37-2.7,3.01-8.25,1.51-6.06-.72ZM392.4,183.99c-1.72,4.45-8.48,5.13-7,1.76,1.29-2.94,5.55-2.38,6.78-2.15.18.04.29.22.22.39ZM392.85,194.17c-.72-3.13,3.03-5.22,4.16-5.77.16-.08.36.01.41.18,1.28,4.6-3.74,9.18-4.57,5.59ZM397.06,185.24c-.55-2.64,2.64-4.32,3.59-4.76.14-.07.31.01.35.16.99,3.88-3.31,7.64-3.94,4.6ZM401.04,192.15c-1.52-2.23.77-5.01,1.48-5.78.11-.12.29-.11.38.01,2.41,3.2-.11,8.33-1.86,5.77ZM402.27,178c-.13.11-.33.08-.41-.06-2.19-3.78,1.2-9,2.76-6.01,1.36,2.61-1.48,5.33-2.35,6.07ZM405.68,180.92c.01-.15.16-.26.31-.22,3.86,1.07,4.99,6.66,2.05,5.71-2.57-.84-2.45-4.44-2.36-5.49ZM408.29,195.72c-2.25-1.48-1.19-4.92-.82-5.91.05-.14.22-.21.35-.13,3.45,2.05,3.06,7.74.47,6.04ZM415.52,191.48c-2.65-.55-2.92-4.14-2.95-5.2,0-.15.14-.27.29-.25,3.95.64,5.69,6.08,2.66,5.45ZM417.13,179.36c-1.82,2.33-5.49.87-6.53.38-.16-.07-.21-.26-.12-.4,2.54-3.58,8.73-2.66,6.65.02Z"/>
  <path class="uuid-b07ee232-35e6-43db-ae86-1b2d35d9acf5" d="M434.01,176.45c-2.43-27.2-13.77-36.64-35.09-38.85,0,0-26.73-1.56-32.67,33.75-5.94,35.31,29.7,45.12,37.26,43.86s32.93-11.56,30.5-38.76ZM420.78,198.6c-4.62,4.06-10.3,6.27-15.93,6.27-.91,0-1.82-.06-2.72-.18-12.99-1.68-26.88-10-28.32-22.65-.97-8.57,3.39-13.98,6.58-17.93,1.27-1.58,2.38-2.94,2.73-4.03,1.67-5.16,6.39-10.84,14.61-11.35,8.45-.53,14.13,7.65,14.37,8l.07.12c.04.07,4.17,7.5,7.25,10.14,4.05,3.47,8.7,8.62,8.7,17.73,0,4.65-2.74,9.84-7.34,13.88Z"/>
  <path class="uuid-b07ee232-35e6-43db-ae86-1b2d35d9acf5" d="M108.93,77.34c-.88,2.55-2.31,4.89-4.3,6.71-3.19,2.9-8.04,4.93-12.05-3.52-6.6-13.92-7.68-19.44-10.32-19.68s.36,9.64,2.04,12.86,10.32,17.75,12,30.23-3.48,18.48-9.36,20.4-20.88.6-23.4-5.04,5.04-33.85,4.2-48.37,1.8-34.09,15.36-30.97,10.92,24.73,16.92,23.16,2.04-24.48,18.6-22.56,12.48,26.77,12.96,34.81,6,21.72,7.32,24.36,7.56,19.32-5.76,24.24c-13.32,4.92-23.4-2.04-25.21-4.92-1.33-2.13-4.44-14.76,1.68-28.57,6.12-13.8,9.24-26.17,8.16-29.41-.99-2.98-5.44,6.33-8.86,16.26Z"/>
  <path class="uuid-b07ee232-35e6-43db-ae86-1b2d35d9acf5" d="M208.66,65.72c1.21,2.22,1.81,4.72,1.93,7.24.28,5.69.46,14.97-.9,19.45-2.04,6.72-7.92,15.96-5.76,23.16s8.88,9.84,14.52,9.6,19.44-2.04,19.56-11.16-4.8-17.15-5.04-17.34-4.68-11.59-4.56-17.59.6-9.96,4.44-9.96,3.72,5.52,5.88,6.6,12.24,1.92,14.52-6.48c2.28-8.4-2.04-15.39-5.76-16.94s-14.96-.71-18.82,6.5c0,0-2.42.48-2.3-.48s2.28-6.98-6.24-6.67-12.6,4.99-13.08,6.79c-.38,1.41-.01,4.3,1.61,7.28Z"/>
  <path class="uuid-b07ee232-35e6-43db-ae86-1b2d35d9acf5" d="M346.61,124.81c-17.64,5.37-31.47-12.71-32.85-16.08-.62-1.52-6.23-18.33-.62-34.91,4.89-14.47,14.63-22.29,27.8-22.1,2.98-2.37,5.64-6.3,3.53-12.31-.03-.09-.16-.07-.16.03.14,1.87.07,7.4-4.75,11.01,0,0-8.12-12.21-2.2-18.91,0,0,3.56-3.95,6.49-4.96.19-.06.4-.02.54.12,1.26,1.1,7.03,6.46,7.11,12.18.06,4.42-3.42,9.7-8.47,12.94,1.27.08,2.57.25,3.9.49,16.21,2.93,13.21,16.77,10.47,19.39-2.45,2.34-9,7.28-13.03-1.36-1.24-2.66-4.4-3.85-7.1-2.71-1.69.71-3.37,1.94-4.43,4.07-2.87,5.73-2.87,17.2,1.24,19.57,4.12,2.37,13.1-1.87,17.34-3.99,4.24-2.12,10.35-1.62,10.97,5.61.62,7.24,1.85,26.56-15.78,31.92Z"/>
  <path class="uuid-b07ee232-35e6-43db-ae86-1b2d35d9acf5" d="M376.42,51.71s12.57-1,13.78,5.89-6.77,30.21,0,33.72,12.93-2.3,11.6-14.74-3.14-20.55.73-22.36,16.56-4.11,19.46.12-1.69,31.18-.6,35.53c1.09,4.35,5.44,12.81,6.16,14.87s3.14,14.99-7.86,19.1c-11,4.11-16.05.6-17.34-1.21-.58-.82-2.36-3.38-4.05-.85s-13.48,4.59-20.06.73c-5.54-3.25-10.52-4.07-9.67-21.51.81-16.68.31-27.07-.09-28.64s-8.25-12.33-3.54-16.32c4.71-3.99,11.48-4.32,11.48-4.32Z"/>
  <path class="uuid-b07ee232-35e6-43db-ae86-1b2d35d9acf5" d="M128.32,138.44c2.91-.32,5.89.19,8.46,1.59,4.61,2.52,6.92,7.31,8.23,17.94,1.76,14.19,3.51,20.21,8.66,33.27,5.15,13.06-2.01,20.96-6.9,23.1-4.9,2.13-23.6,2.89-26.11-6.78-2.51-9.67,5.02-26.11,6.03-35.61,1-9.5.5-15.73-5.4-15.73s-2.76,20.41-2.76,20.41c0,0,2.13,17.63-9.16,16.62-11.3-1-9.04-14.56-9.04-15.19s.5-19.71-4.27-21.47c-4.77-1.76-5.4,3.64-5.9,10.92s7.03,20.84,8.16,24.6c1.13,3.77,1.51,15.69-4.77,20.34-6.28,4.64-19.71,2.26-25.86,0-6.15-2.26-5.9-15.44-1.13-23.85,4.77-8.41,3.77-22.22,4.02-28.75.25-6.53-4.02-7.53-4.02-13.72s7.91-8.13,14.06-8c6.15.13,5.27,5.15,7.41,7.41,1.46,1.55,2.69-.26,3.32-1.56.98-2.02,2.49-3.77,4.44-4.89,2.7-1.55,6.81-2.4,12.46.42,0,0,3.77,2.51,6.15,6.15,2.39,3.64,3.39-5.4,9.42-6.78,1.92-.44,3.43-.33,4.52-.45Z"/>
  <path class="uuid-b07ee232-35e6-43db-ae86-1b2d35d9acf5" d="M259.59,157.25c-5.08-.06-10.43,4.12-10.94,11.4-.5,7.28,8.16,20.73,9.29,24.5,1.13,3.77,1.51,15.69-4.77,20.34-6.28,4.64-19.71,2.26-25.86,0-6.15-2.26-5.9-15.44-1.13-23.85,4.77-8.41,3.77-22.22,4.02-28.75.25-6.53-4.02-7.53-4.02-13.72s7.91-8.13,14.06-8c6.15.13,5.27,5.15,7.41,7.41,1.46,1.55,2.69-.26,3.32-1.56.98-2.02,2.49-3.77,4.44-4.89,0,0,17.1-7.78,26.67,3,6.15,6.93,7.22,15.12,7.2,20.09-.02,3.44.53,6.85,1.73,10.08,2.83,7.61,7.57,20.65,7.78,23.31.3,3.8,3.95,19.51-14.89,19.55s-20.05-9.37-20.05-11.2,6.23-27.95,4.56-35.85c-1.67-7.9-3.15-11.8-8.81-11.86Z"/>
</svg>